<svg xmlns="http://www.w3.org/2000/svg" version="1.1" xmlns:xlink="http://www.w3.org/1999/xlink" xmlns:svgjs="http://svgjs.dev/svgjs" width="1440" height="560" preserveAspectRatio="none" viewBox="0 0 1440 560"><g mask="url(&quot;#SvgjsMask1108&quot;)" fill="none"><rect width="1440" height="560" x="0" y="0" fill="rgba(93, 23, 117, 1)"></rect><use xlink:href="#SvgjsG1113" transform="translate(0, 0)" fill="rgba(174, 84, 177, 1)"></use><use xlink:href="#SvgjsG1113" transform="translate(0, 480)" fill="rgba(174, 84, 177, 1)"></use><use xlink:href="#SvgjsG1113" transform="translate(480, 0)" fill="rgba(174, 84, 177, 1)"></use><use xlink:href="#SvgjsG1113" transform="translate(480, 480)" fill="rgba(174, 84, 177, 1)"></use><use xlink:href="#SvgjsG1113" transform="translate(960, 0)" fill="rgba(174, 84, 177, 1)"></use><use xlink:href="#SvgjsG1113" transform="translate(960, 480)" fill="rgba(174, 84, 177, 1)"></use></g><defs><mask id="SvgjsMask1108"><rect width="1440" height="560" fill="#ffffff"></rect></mask><g id="SvgjsG1110"><path d="M11.986 8.245a46.749 46.749 0 0 1-0.521-0.411c-0.146-0.116-0.293-0.233-0.44-0.348-0.88-0.688-1.797-1.316-2.816-1.407A2.815 2.815 0 0 0 7.954 6.067c-0.086 0-0.171 0.011-0.255 0.018-1.022 0.093-1.942 0.717-2.826 1.408l0.093 0.073c0.108 0.085 0.213 0.168 0.32 0.252C6.165 7.137 7.021 6.576 7.954 6.576c0.93 0 1.784 0.558 2.66 1.236a35.098 35.098 0 0 1 0.535 0.421c0.142 0.113 0.283 0.226 0.426 0.338C12.532 9.32 13.531 10 14.658 10c0.437 0 0.854-0.104 1.257-0.273v-0.557c-0.409 0.197-0.825 0.32-1.257 0.32-0.934 0-1.792-0.563-2.672-1.245z"></path><path d="M11.574 7.496c0.029 0.023 0.059 0.046 0.088 0.07 0.109 0.087 0.216 0.17 0.325 0.256 0.318-0.246 0.635-0.476 0.952-0.67v1.37c0.17 0.111 0.34 0.214 0.51 0.301V6.878c0.315-0.147 0.634-0.248 0.96-0.283v2.537c0.078 0.01 0.157 0.018 0.237 0.018 0.091 0 0.183-0.009 0.273-0.021V6.592c0.34 0.037 0.67 0.144 0.996 0.3V6.336C15.514 6.17 15.099 6.067 14.664 6.067c-1.128 0-2.13 0.68-3.09 1.429z m-7.248 1.08c-0.034-0.027-0.068-0.053-0.102-0.08-0.104-0.083-0.207-0.162-0.31-0.245-0.877 0.678-1.733 1.238-2.665 1.238C0.82 9.49 0.407 9.36 0 9.152v0.562C0.401 9.891 0.815 10 1.249 10c1.124 0 2.122-0.677 3.077-1.423z"></path><path d="M0.989 9.133c0.084 0.011 0.17 0.019 0.254 0.02 0.086 0 0.171-0.008 0.256-0.02V6.592c0.329 0.035 0.65 0.136 0.967 0.285-0.002 0.012-0.007 0.023-0.007 0.036v1.903a5.818 5.818 0 0 0 0.51-0.303V7.152c0.487 0.3 0.971 0.684 1.467 1.08C5.525 9.101 6.652 10 7.948 10c1.123 0 2.121-0.675 3.078-1.42l-0.106-0.084c-0.103-0.082-0.205-0.161-0.306-0.242-0.313 0.242-0.622 0.466-0.934 0.658V7.564A5.816 5.816 0 0 0 9.17 7.261v1.893c0 0.01 0.004 0.019 0.005 0.029-0.316 0.149-0.637 0.252-0.965 0.288V6.937a1.97 1.97 0 0 0-0.267-0.02c-0.082 0-0.163 0.008-0.243 0.017v2.541c-0.33-0.035-0.652-0.136-0.969-0.283 0.002-0.013 0.006-0.024 0.006-0.039V7.248a5.629 5.629 0 0 0-0.51 0.302v1.368c-0.49-0.299-0.976-0.686-1.474-1.083C3.666 6.966 2.539 6.067 1.243 6.067c-0.432 0-0.844 0.096-1.243 0.251v0.55c0.324-0.144 0.652-0.244 0.989-0.278V9.133z"></path></g><g id="SvgjsG1109"><path d="M3.312 10.09l3.972 2.294-0.394 0.681L2.919 10.771 3.312 10.09z"></path><path d="M10.944 14.37c1.147-1.084 1.874-2.605 1.874-4.304 0-2.093-1.099-3.981-2.809-5.041l1.915-3.315-0.3-0.174L12.096 0.715 10.858 0 10.384 0.82l-0.317-0.183-4.708 8.156 0.411 0.238-0.584 1.01 1.035 0.597 0.584-1.01 0.41 0.237 1.98-3.429c1.214 0.774 1.993 2.13 1.993 3.63 0 2.373-1.932 4.304-4.305 4.304H3.413V16h9.766V14.37H10.944z"></path></g><g id="SvgjsG1111"><path d="M13.82 13.722c0.417-0.509 0.563-1.217 0.321-1.881l-0.22-0.607h1.332V0H0.8v11.234h7.773l0.847 2.326a1.922 1.922 0 0 0 1.455 1.234l0.399 1.206 3.335 0-0.789-2.278z m-1.212-6.07c-0.712 0.259-1.08 1.048-0.821 1.762l0.514 1.402H1.218V0.419h13.618v10.396h-1.07l-1.158-3.163z"></path><path d="M8.649 6.424v0.802H10.992c0.098 0 0.241 0.087 0.241 0.241 0 1.365-0.172 2.01-0.891 2.01-0.748 0-0.901-1.619-1.693-1.724v1.547h-1.253V7.75c-0.832 0.062-0.966 1.726-1.742 1.727-0.719 0-0.852-0.645-0.852-2.01 0-0.153 0.143-0.241 0.241-0.241h2.353v-0.802H4.96c-0.14 0-0.254-0.113-0.255-0.253s0.114-0.253 0.255-0.253h2.436V5.115h-2.742a0.254 0.254 0 0 1 0-0.507h2.742v-0.802h-2.574c-0.139 0-0.253-0.114-0.253-0.254 0-0.14 0.114-0.254 0.253-0.254h2.574V2.496h-2.016a0.254 0.254 0 0 1 0-0.508h2.016v-0.443h1.253v0.443h2.016c0.14 0 0.254 0.115 0.254 0.255S10.805 2.496 10.665 2.496h-2.016v0.802H11.23a0.254 0.254 0 0 1 0 0.508H8.649v0.802h2.75a0.254 0.254 0 0 1 0 0.507h-2.75v0.802h2.437a0.253 0.253 0 0 1 0 0.507h-2.437z"></path></g><g id="SvgjsG1112"><path d="M14.344 10.747c0 2.735-2.217 4.952-4.952 4.952-2.735 0-4.952-2.217-4.953-4.952 0-1.3 0.294-3.189 2.021-4.918 3.16-3.16 3.308-4.973 3.308-4.973 3.797 3.797 4.576 7.155 4.576 9.889z"></path><path d="M3.978 3.8s0.461 3.022 3.141 4.749c1.488 0.959 4.571 3.643 4.57 4.584 0 1.981-4.712 2.565-6.693 2.566s-3.588-1.606-3.588-3.588c0-1.982-0.18-5.56 2.571-8.311z"></path><path d="M8.123 6.557s0.08 0.983 1.792 2.695c0.936 0.935 1.095 1.959 1.095 2.663 0 1.482-1.201 2.683-2.684 2.683s-2.683-1.201-2.683-2.684c0-1.481 0.422-3.301 2.48-5.358z"></path></g><g id="SvgjsG1113"><use xlink:href="#SvgjsG1109" transform="translate(0, 0) scale(2)" fill="rgba(174, 84, 177, 1)"></use><use xlink:href="#SvgjsG1109" transform="translate(0, 48) scale(2)" fill="rgba(174, 84, 177, 1)"></use><use xlink:href="#SvgjsG1110" transform="translate(0, 96) scale(2)" fill="rgba(174, 84, 177, 1)"></use><use xlink:href="#SvgjsG1111" transform="translate(0, 144) scale(2)" fill="rgba(174, 84, 177, 1)"></use><use xlink:href="#SvgjsG1109" transform="translate(0, 192) scale(2)" fill="rgba(174, 84, 177, 1)"></use><use xlink:href="#SvgjsG1112" transform="translate(0, 240) scale(2)" fill="rgba(174, 84, 177, 1)"></use><use xlink:href="#SvgjsG1110" transform="translate(0, 288) scale(2)" fill="rgba(174, 84, 177, 1)"></use><use xlink:href="#SvgjsG1110" transform="translate(0, 336) scale(2)" fill="rgba(174, 84, 177, 1)"></use><use xlink:href="#SvgjsG1110" transform="translate(0, 384) scale(2)" fill="rgba(174, 84, 177, 1)"></use><use xlink:href="#SvgjsG1112" transform="translate(0, 432) scale(2)" fill="rgba(174, 84, 177, 1)"></use><use xlink:href="#SvgjsG1112" transform="translate(48, 0) scale(2)" fill="rgba(174, 84, 177, 1)"></use><use xlink:href="#SvgjsG1112" transform="translate(48, 48) scale(2)" fill="rgba(174, 84, 177, 1)"></use><use xlink:href="#SvgjsG1109" transform="translate(48, 96) scale(2)" fill="rgba(174, 84, 177, 1)"></use><use xlink:href="#SvgjsG1111" transform="translate(48, 144) scale(2)" fill="rgba(174, 84, 177, 1)"></use><use xlink:href="#SvgjsG1112" transform="translate(48, 192) scale(2)" fill="rgba(174, 84, 177, 1)"></use><use xlink:href="#SvgjsG1112" transform="translate(48, 240) scale(2)" fill="rgba(174, 84, 177, 1)"></use><use xlink:href="#SvgjsG1110" transform="translate(48, 288) scale(2)" fill="rgba(174, 84, 177, 1)"></use><use xlink:href="#SvgjsG1111" transform="translate(48, 336) scale(2)" fill="rgba(174, 84, 177, 1)"></use><use xlink:href="#SvgjsG1112" transform="translate(48, 384) scale(2)" fill="rgba(174, 84, 177, 1)"></use><use xlink:href="#SvgjsG1112" transform="translate(48, 432) scale(2)" fill="rgba(174, 84, 177, 1)"></use><use xlink:href="#SvgjsG1111" transform="translate(96, 0) scale(2)" fill="rgba(174, 84, 177, 1)"></use><use xlink:href="#SvgjsG1111" transform="translate(96, 48) scale(2)" fill="rgba(174, 84, 177, 1)"></use><use xlink:href="#SvgjsG1112" transform="translate(96, 96) scale(2)" fill="rgba(174, 84, 177, 1)"></use><use xlink:href="#SvgjsG1112" transform="translate(96, 144) scale(2)" fill="rgba(174, 84, 177, 1)"></use><use xlink:href="#SvgjsG1112" transform="translate(96, 192) scale(2)" fill="rgba(174, 84, 177, 1)"></use><use xlink:href="#SvgjsG1109" transform="translate(96, 240) scale(2)" fill="rgba(174, 84, 177, 1)"></use><use xlink:href="#SvgjsG1109" transform="translate(96, 288) scale(2)" fill="rgba(174, 84, 177, 1)"></use><use xlink:href="#SvgjsG1112" transform="translate(96, 336) scale(2)" fill="rgba(174, 84, 177, 1)"></use><use xlink:href="#SvgjsG1112" transform="translate(96, 384) scale(2)" fill="rgba(174, 84, 177, 1)"></use><use xlink:href="#SvgjsG1112" transform="translate(96, 432) scale(2)" fill="rgba(174, 84, 177, 1)"></use><use xlink:href="#SvgjsG1111" transform="translate(144, 0) scale(2)" fill="rgba(174, 84, 177, 1)"></use><use xlink:href="#SvgjsG1111" transform="translate(144, 48) scale(2)" fill="rgba(174, 84, 177, 1)"></use><use xlink:href="#SvgjsG1110" transform="translate(144, 96) scale(2)" fill="rgba(174, 84, 177, 1)"></use><use xlink:href="#SvgjsG1109" transform="translate(144, 144) scale(2)" fill="rgba(174, 84, 177, 1)"></use><use xlink:href="#SvgjsG1111" transform="translate(144, 192) scale(2)" fill="rgba(174, 84, 177, 1)"></use><use xlink:href="#SvgjsG1111" transform="translate(144, 240) scale(2)" fill="rgba(174, 84, 177, 1)"></use><use xlink:href="#SvgjsG1110" transform="translate(144, 288) scale(2)" fill="rgba(174, 84, 177, 1)"></use><use xlink:href="#SvgjsG1111" transform="translate(144, 336) scale(2)" fill="rgba(174, 84, 177, 1)"></use><use xlink:href="#SvgjsG1110" transform="translate(144, 384) scale(2)" fill="rgba(174, 84, 177, 1)"></use><use xlink:href="#SvgjsG1110" transform="translate(144, 432) scale(2)" fill="rgba(174, 84, 177, 1)"></use><use xlink:href="#SvgjsG1110" transform="translate(192, 0) scale(2)" fill="rgba(174, 84, 177, 1)"></use><use xlink:href="#SvgjsG1110" transform="translate(192, 48) scale(2)" fill="rgba(174, 84, 177, 1)"></use><use xlink:href="#SvgjsG1109" transform="translate(192, 96) scale(2)" fill="rgba(174, 84, 177, 1)"></use><use xlink:href="#SvgjsG1112" transform="translate(192, 144) scale(2)" fill="rgba(174, 84, 177, 1)"></use><use xlink:href="#SvgjsG1109" transform="translate(192, 192) scale(2)" fill="rgba(174, 84, 177, 1)"></use><use xlink:href="#SvgjsG1110" transform="translate(192, 240) scale(2)" fill="rgba(174, 84, 177, 1)"></use><use xlink:href="#SvgjsG1111" transform="translate(192, 288) scale(2)" fill="rgba(174, 84, 177, 1)"></use><use xlink:href="#SvgjsG1110" transform="translate(192, 336) scale(2)" fill="rgba(174, 84, 177, 1)"></use><use xlink:href="#SvgjsG1111" transform="translate(192, 384) scale(2)" fill="rgba(174, 84, 177, 1)"></use><use xlink:href="#SvgjsG1112" transform="translate(192, 432) scale(2)" fill="rgba(174, 84, 177, 1)"></use><use xlink:href="#SvgjsG1110" transform="translate(240, 0) scale(2)" fill="rgba(174, 84, 177, 1)"></use><use xlink:href="#SvgjsG1111" transform="translate(240, 48) scale(2)" fill="rgba(174, 84, 177, 1)"></use><use xlink:href="#SvgjsG1111" transform="translate(240, 96) scale(2)" fill="rgba(174, 84, 177, 1)"></use><use xlink:href="#SvgjsG1109" transform="translate(240, 144) scale(2)" fill="rgba(174, 84, 177, 1)"></use><use xlink:href="#SvgjsG1112" transform="translate(240, 192) scale(2)" fill="rgba(174, 84, 177, 1)"></use><use xlink:href="#SvgjsG1109" transform="translate(240, 240) scale(2)" fill="rgba(174, 84, 177, 1)"></use><use xlink:href="#SvgjsG1111" transform="translate(240, 288) scale(2)" fill="rgba(174, 84, 177, 1)"></use><use xlink:href="#SvgjsG1112" transform="translate(240, 336) scale(2)" fill="rgba(174, 84, 177, 1)"></use><use xlink:href="#SvgjsG1112" transform="translate(240, 384) scale(2)" fill="rgba(174, 84, 177, 1)"></use><use xlink:href="#SvgjsG1109" transform="translate(240, 432) scale(2)" fill="rgba(174, 84, 177, 1)"></use><use xlink:href="#SvgjsG1110" transform="translate(288, 0) scale(2)" fill="rgba(174, 84, 177, 1)"></use><use xlink:href="#SvgjsG1110" transform="translate(288, 48) scale(2)" fill="rgba(174, 84, 177, 1)"></use><use xlink:href="#SvgjsG1109" transform="translate(288, 96) scale(2)" fill="rgba(174, 84, 177, 1)"></use><use xlink:href="#SvgjsG1109" transform="translate(288, 144) scale(2)" fill="rgba(174, 84, 177, 1)"></use><use xlink:href="#SvgjsG1112" transform="translate(288, 192) scale(2)" fill="rgba(174, 84, 177, 1)"></use><use xlink:href="#SvgjsG1109" transform="translate(288, 240) scale(2)" fill="rgba(174, 84, 177, 1)"></use><use xlink:href="#SvgjsG1109" transform="translate(288, 288) scale(2)" fill="rgba(174, 84, 177, 1)"></use><use xlink:href="#SvgjsG1110" transform="translate(288, 336) scale(2)" fill="rgba(174, 84, 177, 1)"></use><use xlink:href="#SvgjsG1112" transform="translate(288, 384) scale(2)" fill="rgba(174, 84, 177, 1)"></use><use xlink:href="#SvgjsG1112" transform="translate(288, 432) scale(2)" fill="rgba(174, 84, 177, 1)"></use><use xlink:href="#SvgjsG1112" transform="translate(336, 0) scale(2)" fill="rgba(174, 84, 177, 1)"></use><use xlink:href="#SvgjsG1111" transform="translate(336, 48) scale(2)" fill="rgba(174, 84, 177, 1)"></use><use xlink:href="#SvgjsG1109" transform="translate(336, 96) scale(2)" fill="rgba(174, 84, 177, 1)"></use><use xlink:href="#SvgjsG1109" transform="translate(336, 144) scale(2)" fill="rgba(174, 84, 177, 1)"></use><use xlink:href="#SvgjsG1110" transform="translate(336, 192) scale(2)" fill="rgba(174, 84, 177, 1)"></use><use xlink:href="#SvgjsG1109" transform="translate(336, 240) scale(2)" fill="rgba(174, 84, 177, 1)"></use><use xlink:href="#SvgjsG1110" transform="translate(336, 288) scale(2)" fill="rgba(174, 84, 177, 1)"></use><use xlink:href="#SvgjsG1111" transform="translate(336, 336) scale(2)" fill="rgba(174, 84, 177, 1)"></use><use xlink:href="#SvgjsG1109" transform="translate(336, 384) scale(2)" fill="rgba(174, 84, 177, 1)"></use><use xlink:href="#SvgjsG1109" transform="translate(336, 432) scale(2)" fill="rgba(174, 84, 177, 1)"></use><use xlink:href="#SvgjsG1111" transform="translate(384, 0) scale(2)" fill="rgba(174, 84, 177, 1)"></use><use xlink:href="#SvgjsG1109" transform="translate(384, 48) scale(2)" fill="rgba(174, 84, 177, 1)"></use><use xlink:href="#SvgjsG1111" transform="translate(384, 96) scale(2)" fill="rgba(174, 84, 177, 1)"></use><use xlink:href="#SvgjsG1110" transform="translate(384, 144) scale(2)" fill="rgba(174, 84, 177, 1)"></use><use xlink:href="#SvgjsG1111" transform="translate(384, 192) scale(2)" fill="rgba(174, 84, 177, 1)"></use><use xlink:href="#SvgjsG1110" transform="translate(384, 240) scale(2)" fill="rgba(174, 84, 177, 1)"></use><use xlink:href="#SvgjsG1110" transform="translate(384, 288) scale(2)" fill="rgba(174, 84, 177, 1)"></use><use xlink:href="#SvgjsG1110" transform="translate(384, 336) scale(2)" fill="rgba(174, 84, 177, 1)"></use><use xlink:href="#SvgjsG1111" transform="translate(384, 384) scale(2)" fill="rgba(174, 84, 177, 1)"></use><use xlink:href="#SvgjsG1109" transform="translate(384, 432) scale(2)" fill="rgba(174, 84, 177, 1)"></use><use xlink:href="#SvgjsG1111" transform="translate(432, 0) scale(2)" fill="rgba(174, 84, 177, 1)"></use><use xlink:href="#SvgjsG1109" transform="translate(432, 48) scale(2)" fill="rgba(174, 84, 177, 1)"></use><use xlink:href="#SvgjsG1112" transform="translate(432, 96) scale(2)" fill="rgba(174, 84, 177, 1)"></use><use xlink:href="#SvgjsG1111" transform="translate(432, 144) scale(2)" fill="rgba(174, 84, 177, 1)"></use><use xlink:href="#SvgjsG1111" transform="translate(432, 192) scale(2)" fill="rgba(174, 84, 177, 1)"></use><use xlink:href="#SvgjsG1112" transform="translate(432, 240) scale(2)" fill="rgba(174, 84, 177, 1)"></use><use xlink:href="#SvgjsG1110" transform="translate(432, 288) scale(2)" fill="rgba(174, 84, 177, 1)"></use><use xlink:href="#SvgjsG1112" transform="translate(432, 336) scale(2)" fill="rgba(174, 84, 177, 1)"></use><use xlink:href="#SvgjsG1111" transform="translate(432, 384) scale(2)" fill="rgba(174, 84, 177, 1)"></use><use xlink:href="#SvgjsG1110" transform="translate(432, 432) scale(2)" fill="rgba(174, 84, 177, 1)"></use></g></defs></svg>